<svg width="24" height="24" viewBox="0 0 24 24" fill="none" xmlns="http://www.w3.org/2000/svg">
<path d="M12 24C18.6274 24 24 18.6274 24 12C24 5.37258 18.6274 0 12 0C5.37258 0 0 5.37258 0 12C0 18.6274 5.37258 24 12 24Z" fill="#627EEA"/>
<path d="M12.374 2.99841V9.65123L17.9968 12.1641L12.374 2.99841Z" fill="#DBDCF0"/>
<path d="M12.3737 2.99841L6.75098 12.1641L12.3737 9.65123V2.99841Z" fill="#DBDCF0"/>
<path d="M12.374 16.4745V20.995L18 13.2104L12.374 16.4745Z" fill="#DBDCF0"/>
<path d="M12.3737 20.995V16.4745L6.75098 13.2104L12.3737 20.995Z" fill="#DBDCF0"/>
<path d="M12.374 15.4282L17.9968 12.1641L12.374 9.65125V15.4282Z" fill="#DBDCF0"/>
<path d="M6.75098 12.1641L12.3737 15.4282V9.65125L6.75098 12.1641Z" fill="#DBDCF0"/>
</svg>
