<svg width="25" height="25" viewBox="0 0 25 25" fill="none" xmlns="http://www.w3.org/2000/svg">
<path d="M12.5 25C19.4036 25 25 19.4036 25 12.5C25 5.59644 19.4036 0 12.5 0C5.59644 0 0 5.59644 0 12.5C0 19.4036 5.59644 25 12.5 25Z" fill="#627EEA"/>
<path d="M12.8896 3.12329V10.0533L18.7467 12.6709L12.8896 3.12329Z" fill="white" fill-opacity="0.602"/>
<path d="M12.8902 3.12329L7.0332 12.6709L12.8902 10.0533V3.12329Z" fill="white"/>
<path d="M12.8896 17.1608V21.8697L18.7501 13.7607L12.8896 17.1608Z" fill="white" fill-opacity="0.602"/>
<path d="M12.8902 21.8697V17.1608L7.0332 13.7607L12.8902 21.8697Z" fill="white"/>
<path d="M12.8896 16.0711L18.7467 12.671L12.8896 10.0535V16.0711Z" fill="white" fill-opacity="0.2"/>
<path d="M7.0332 12.671L12.8902 16.0711V10.0535L7.0332 12.671Z" fill="white" fill-opacity="0.602"/>
</svg>
