<svg width="72" height="67" viewBox="0 0 72 67" fill="none" xmlns="http://www.w3.org/2000/svg">
<path d="M67.5139 1L40.2002 21.2863L45.2512 9.31765L67.5139 1Z" fill="#E2761B" stroke="#E2761B" stroke-linecap="round" stroke-linejoin="round"/>
<path d="M4.4595 1L31.5536 21.4784L26.7497 9.31765L4.4595 1ZM57.687 48.0235L50.4124 59.1686L65.9771 63.451L70.4517 48.2706L57.687 48.0235ZM1.57715 48.2706L6.02421 63.451L21.5889 59.1686L14.3144 48.0235L1.57715 48.2706Z" fill="#E4761B" stroke="#E4761B" stroke-linecap="round" stroke-linejoin="round"/>
<path d="M20.7103 29.1921L16.373 35.7529L31.828 36.4392L31.2789 19.8313L20.7103 29.1921ZM51.2632 29.1921L40.5574 19.6392L40.2005 36.4392L55.628 35.7529L51.2632 29.1921ZM21.5887 59.1686L30.8672 54.6392L22.8515 48.3803L21.5887 59.1686ZM41.1064 54.6392L50.4123 59.1686L49.1221 48.3803L41.1064 54.6392Z" fill="#E4761B" stroke="#E4761B" stroke-linecap="round" stroke-linejoin="round"/>
<path d="M50.4114 59.1686L41.1055 54.6392L41.8467 60.7058L41.7644 63.2588L50.4114 59.1686ZM21.5879 59.1686L30.235 63.2588L30.18 60.7058L30.8663 54.6392L21.5879 59.1686Z" fill="#D7C1B3" stroke="#D7C1B3" stroke-linecap="round" stroke-linejoin="round"/>
<path d="M30.373 44.3725L22.6318 42.0941L28.0946 39.5961L30.373 44.3725ZM41.6005 44.3725L43.8789 39.5961L49.3691 42.0941L41.6005 44.3725Z" fill="#233447" stroke="#233447" stroke-linecap="round" stroke-linejoin="round"/>
<path d="M21.588 59.1686L22.9056 48.0235L14.3135 48.2706L21.588 59.1686ZM49.0939 48.0235L50.4115 59.1686L57.686 48.2706L49.0939 48.0235ZM55.6272 35.7529L40.1998 36.4392L41.6272 44.3725L43.9056 39.5961L49.3958 42.0941L55.6272 35.7529ZM22.6311 42.0941L28.1213 39.5961L30.3723 44.3725L31.8272 36.4392L16.3723 35.7529L22.6311 42.0941Z" fill="#CD6116" stroke="#CD6116" stroke-linecap="round" stroke-linejoin="round"/>
<path d="M16.373 35.7529L22.8515 48.3804L22.6319 42.0941L16.373 35.7529ZM49.3966 42.0941L49.1221 48.3804L55.628 35.7529L49.3966 42.0941ZM31.828 36.4392L30.373 44.3725L32.1848 53.7333L32.5966 41.4078L31.828 36.4392ZM40.2005 36.4392L39.4593 41.3804L39.7887 53.7333L41.628 44.3725L40.2005 36.4392Z" fill="#E4751F" stroke="#E4751F" stroke-linecap="round" stroke-linejoin="round"/>
<path d="M41.6279 44.3725L39.7887 53.7333L41.1063 54.6392L49.122 48.3804L49.3965 42.0941L41.6279 44.3725ZM22.6318 42.0941L22.8514 48.3804L30.8671 54.6392L32.1848 53.7333L30.373 44.3725L22.6318 42.0941Z" fill="#F6851B" stroke="#F6851B" stroke-linecap="round" stroke-linejoin="round"/>
<path d="M41.7644 63.2589L41.8467 60.706L41.1604 60.102H30.8114L30.18 60.706L30.235 63.2589L21.5879 59.1687L24.6075 61.6393L30.7291 65.8942H41.2428L47.3918 61.6393L50.4114 59.1687L41.7644 63.2589Z" fill="#C0AD9E" stroke="#C0AD9E" stroke-linecap="round" stroke-linejoin="round"/>
<path d="M41.1062 54.6392L39.7885 53.7333H32.1846L30.8669 54.6392L30.1807 60.7058L30.812 60.1019H41.1611L41.8473 60.7058L41.1062 54.6392Z" fill="#161616" stroke="#161616" stroke-linecap="round" stroke-linejoin="round"/>
<path d="M68.6667 22.6039L71 11.4039L67.5137 1L41.1059 20.6L51.2627 29.1922L65.6196 33.3922L68.8039 29.6863L67.4314 28.698L69.6274 26.6941L67.9255 25.3765L70.1216 23.702L68.6667 22.6039ZM1 11.4039L3.33333 22.6039L1.85098 23.702L4.04706 25.3765L2.37255 26.6941L4.56863 28.698L3.19608 29.6863L6.35294 33.3922L20.7098 29.1922L30.8667 20.6L4.45882 1L1 11.4039Z" fill="#763D16" stroke="#763D16" stroke-linecap="round" stroke-linejoin="round"/>
<path d="M65.6203 33.3921L51.2634 29.1921L55.6281 35.7529L49.1223 48.3804L57.687 48.2706H70.4517L65.6203 33.3921ZM20.7105 29.1921L6.35362 33.3921L1.57715 48.2706H14.3144L22.8517 48.3804L16.3732 35.7529L20.7105 29.1921ZM40.2007 36.4392L41.1066 20.6L45.2791 9.31763H26.7497L30.8673 20.6L31.8281 36.4392L32.1575 41.4353L32.185 53.7333H39.7889L39.8438 41.4353L40.2007 36.4392Z" fill="#F6851B" stroke="#F6851B" stroke-linecap="round" stroke-linejoin="round"/>
</svg>
