<svg width="70" height="70" viewBox="0 0 70 70" fill="none" xmlns="http://www.w3.org/2000/svg">
<path fill-rule="evenodd" clip-rule="evenodd" d="M35 0C54.332 0 70 15.668 70 35C70 54.332 54.332 70 35 70C15.668 70 0 54.332 0 35C0 15.668 15.668 0 35 0Z" fill="url(#paint0_radial_957_31888)"/>
<path d="M22.2441 27.0293C29.2852 20.1523 40.7148 20.1523 47.7559 27.0293L48.6035 27.8633C48.959 28.2051 48.959 28.7656 48.6035 29.1074L45.7051 31.9375C45.5273 32.1152 45.2402 32.1152 45.0625 31.9375L43.9004 30.8027C38.9785 26.0039 31.0215 26.0039 26.0996 30.8027L24.8555 32.0195C24.6777 32.1973 24.3906 32.1973 24.2129 32.0195L21.3145 29.1895C20.959 28.8477 20.959 28.2871 21.3145 27.9453L22.2441 27.0293ZM53.7578 32.8809L56.3418 35.3965C56.6973 35.7383 56.6973 36.2988 56.3418 36.6406L44.707 48.002C44.3516 48.3438 43.7773 48.3438 43.4355 48.002L35.1777 39.9356C35.0957 39.8535 34.9453 39.8535 34.8633 39.9356L26.6055 48.002C26.25 48.3438 25.6758 48.3438 25.334 48.002L13.6582 36.6406C13.3027 36.2988 13.3027 35.7383 13.6582 35.3965L16.2422 32.8809C16.5977 32.5391 17.1719 32.5391 17.5137 32.8809L25.7715 40.9473C25.8535 41.0293 26.0039 41.0293 26.0859 40.9473L34.3438 32.8809C34.6992 32.5391 35.2734 32.5391 35.6152 32.8809L43.873 40.9473C43.9551 41.0293 44.1055 41.0293 44.1875 40.9473L52.4453 32.8809C52.8281 32.5391 53.4023 32.5391 53.7578 32.8809Z" fill="#E6E2EE"/>
<defs>
<radialGradient id="paint0_radial_957_31888" cx="0" cy="0" r="1" gradientUnits="userSpaceOnUse" gradientTransform="translate(0.000216961 35.0011) scale(70)">
<stop stop-color="#5D9DF6"/>
<stop offset="1" stop-color="#006FFF"/>
</radialGradient>
</defs>
</svg>
