<svg width="25" height="26" viewBox="0 0 25 26" fill="none" xmlns="http://www.w3.org/2000/svg">
<path d="M24.6258 16.0239C22.9561 22.7204 16.173 26.7958 9.47502 25.1259C2.77978 23.4564 -1.29605 16.6735 0.374438 9.97745C2.04337 3.28019 8.82652 -0.795593 15.5225 0.873939C22.2201 2.54347 26.2956 9.32706 24.6258 16.0239Z" fill="#F7931A"/>
<path d="M18.0126 11.219C18.2614 9.55574 16.9949 8.6616 15.2631 8.06512L15.8249 5.81199L14.4532 5.47019L13.9063 7.66394C13.5457 7.5741 13.1754 7.48934 12.8074 7.40535L13.3582 5.19714L11.9873 4.85535L11.4252 7.10769C11.1267 7.03972 10.8337 6.97254 10.5493 6.90184L10.5509 6.8948L8.65926 6.42253L8.29438 7.88738C8.29438 7.88738 9.31206 8.12058 9.29058 8.13503C9.84611 8.27371 9.9465 8.64128 9.9297 8.93269L9.28979 11.4995C9.32808 11.5093 9.3777 11.5233 9.43239 11.5452C9.38668 11.5339 9.33785 11.5214 9.28745 11.5093L8.39048 15.105C8.3225 15.2737 8.15022 15.5268 7.7619 15.4307C7.77558 15.4507 6.76492 15.1819 6.76492 15.1819L6.08398 16.7518L7.86894 17.1968C8.20101 17.28 8.52643 17.3671 8.84677 17.4491L8.27915 19.728L9.64921 20.0698L10.2114 17.8151C10.5856 17.9167 10.949 18.0104 11.3045 18.0987L10.7443 20.3429L12.1159 20.6847L12.6835 18.41C15.0224 18.8526 16.7812 18.6741 17.5215 16.5589C18.1181 14.8557 17.4918 13.8733 16.2612 13.2327C17.1574 13.0261 17.8325 12.4366 18.0126 11.219ZM14.8787 15.6132C14.4548 17.3163 11.5869 16.3956 10.6571 16.1647L11.4103 13.1456C12.3401 13.3776 15.3217 13.837 14.8787 15.6132ZM15.3029 11.1944C14.9162 12.7436 12.5292 11.9565 11.7549 11.7636L12.4378 9.02528C13.2121 9.21825 15.7057 9.57839 15.3029 11.1944Z" fill="white"/>
</svg>
