<svg width="30" height="30" viewBox="0 0 30 30" fill="none" xmlns="http://www.w3.org/2000/svg">
<path fill-rule="evenodd" clip-rule="evenodd" d="M28.3333 15C28.3333 22.3638 22.3638 28.3333 15 28.3333C7.6362 28.3333 1.66667 22.3638 1.66667 15C1.66667 7.6362 7.6362 1.66667 15 1.66667C22.3638 1.66667 28.3333 7.6362 28.3333 15ZM30 15C30 23.2843 23.2843 30 15 30C6.71573 30 0 23.2843 0 15C0 6.71573 6.71573 0 15 0C23.2843 0 30 6.71573 30 15ZM13.3334 11.4474L18.6621 14.9999L13.3334 18.5524V11.4474ZM20.6266 14.3065C21.1214 14.6364 21.1214 15.3634 20.6266 15.6933L12.9623 20.8028C12.4085 21.172 11.6667 20.775 11.6667 20.1095L11.6667 9.89032C11.6667 9.22474 12.4085 8.82774 12.9623 9.19694L20.6266 14.3065Z" fill="#1C102F"/>
</svg>
