<svg width="25" height="25" viewBox="0 0 25 25" fill="none" xmlns="http://www.w3.org/2000/svg">
<path d="M12.5 25C19.4271 25 25 19.4271 25 12.5C25 5.57288 19.4271 0 12.5 0C5.57288 0 0 5.57288 0 12.5C0 19.4271 5.57288 25 12.5 25Z" fill="#2775CA"/>
<path d="M15.9381 14.4791C15.9381 12.6563 14.8444 12.0313 12.6569 11.7709C11.0944 11.5625 10.7819 11.1459 10.7819 10.4166C10.7819 9.68738 11.3027 9.21875 12.3444 9.21875C13.2819 9.21875 13.8027 9.53125 14.0631 10.3125C14.1152 10.4688 14.2715 10.5729 14.4277 10.5729H15.261C15.4694 10.5729 15.6256 10.4166 15.6256 10.2084V10.1563C15.4172 9.01038 14.4797 8.125 13.2819 8.02088V6.77088C13.2819 6.5625 13.1256 6.40625 12.8652 6.35413H12.084C11.8756 6.35413 11.7194 6.51038 11.6672 6.77088V7.96875C10.1047 8.17713 9.11523 9.21875 9.11523 10.5209C9.11523 12.2396 10.1569 12.9166 12.3444 13.1771C13.8027 13.4375 14.2715 13.75 14.2715 14.5834C14.2715 15.4168 13.5422 15.9896 12.5527 15.9896C11.1985 15.9896 10.7297 15.4166 10.5735 14.6354C10.5215 14.4271 10.3652 14.3229 10.209 14.3229H9.32348C9.11523 14.3229 8.95898 14.4791 8.95898 14.6875V14.7396C9.16723 16.0416 10.0006 16.9791 11.7194 17.2396V18.4896C11.7194 18.6979 11.8756 18.8541 12.136 18.9063H12.9172C13.1256 18.9063 13.2819 18.75 13.334 18.4896V17.2396C14.8965 16.9791 15.9381 15.8854 15.9381 14.4791Z" fill="white"/>
<path d="M9.84379 19.9478C5.78129 18.4895 3.69791 13.9583 5.20841 9.94775C5.98966 7.76025 7.70841 6.09363 9.84379 5.31238C10.0522 5.20825 10.1563 5.052 10.1563 4.7915V4.06238C10.1563 3.854 10.0522 3.69775 9.84379 3.64575C9.79166 3.64575 9.68754 3.64575 9.63541 3.69775C4.68754 5.26025 1.97916 10.5208 3.54166 15.4686C4.47916 18.3853 6.71879 20.6249 9.63541 21.5624C9.84379 21.6665 10.0522 21.5624 10.1042 21.354C10.1563 21.302 10.1563 21.2499 10.1563 21.1458V20.4165C10.1563 20.2603 10 20.052 9.84379 19.9478ZM15.3647 3.69775C15.1563 3.59363 14.9479 3.69775 14.8959 3.90613C14.8438 3.95825 14.8438 4.01025 14.8438 4.1145V4.84363C14.8438 5.052 15 5.26025 15.1563 5.3645C19.2188 6.82275 21.3022 11.354 19.7917 15.3645C19.0104 17.552 17.2917 19.2186 15.1563 19.9999C14.9479 20.104 14.8438 20.2603 14.8438 20.5208V21.2499C14.8438 21.4583 14.9479 21.6145 15.1563 21.6665C15.2084 21.6665 15.3125 21.6665 15.3647 21.6145C20.3125 20.052 23.0209 14.7915 21.4584 9.84363C20.5209 6.87488 18.2292 4.63525 15.3647 3.69775Z" fill="white"/>
</svg>
